<svg width="85px" height="30px" viewBox="0 0 206 62" fill="none" xmlns="http://www.w3.org/2000/svg">
<path fill-rule="evenodd" clip-rule="evenodd" d="M0.375 -63H206.625V125H0.375V-63Z" fill="white"/>
<path fill-rule="evenodd" clip-rule="evenodd" d="M197.432 27.2196C197.432 25.6757 198.635 24.5112 200.181 24.5112C201.707 24.5112 202.913 25.6757 202.913 27.2196C202.913 28.7899 201.707 29.9447 200.181 29.9447C198.635 29.9447 197.432 28.7899 197.432 27.2196ZM200.181 30.4889C202.021 30.4889 203.593 29.1088 203.593 27.2196C203.593 25.349 202.021 23.9689 200.181 23.9689C198.324 23.9689 196.752 25.349 196.752 27.2196C196.752 29.1088 198.324 30.4889 200.181 30.4889ZM199.467 27.4781H200.146L201.172 29.1088H201.832L200.725 27.4527C201.297 27.3845 201.734 27.0909 201.734 26.4179C201.734 25.6757 201.278 25.349 200.359 25.349H198.877V29.1088H199.467V27.4781ZM199.467 26.9953V25.8308H200.269C200.681 25.8308 201.118 25.9176 201.118 26.3828C201.118 26.9612 200.673 26.9953 200.171 26.9953H199.467ZM185.339 40.8284H192.761V35.8396H185.521V31.7364H193.421L193.43 26.7066H178.868V38.8875C176.794 35.5021 169.752 36.3311 169.037 33.5095C168.65 31.989 169.887 30.959 172.138 30.959C174.388 30.959 176.396 32.4015 176.396 32.4015L178.707 28.0769C178.707 28.0769 175.969 26.2931 170.86 26.2472C164.716 26.1916 162.162 31.0712 162.223 33.6782C162.225 33.7719 162.217 33.8597 162.202 33.9445C160.344 29.5585 155.742 26.3477 150.225 25.9478L150.162 25.4709C150.162 25.4709 151.62 25.7479 152.58 25.6786C154.315 25.5538 158.329 22.3518 162.252 22.3927C165.583 22.4279 171.128 25.9225 173.2 26.2599C174.832 26.5252 176.145 25.8444 176.145 25.8444C176.145 25.8444 174.998 26.3282 173.405 25.7996C172.165 25.388 166.403 20.563 161.613 20.7298C156.825 20.8956 154.129 24.6389 152.123 24.6389C146.648 24.4721 147.515 11.4145 138.253 11.1648C129.724 10.9356 127.943 22.0182 120.918 22.0602C116.949 22.0826 115.03 19.8979 114.667 20.0637C114.301 20.2305 114.667 20.604 114.485 20.6879C114.301 20.7708 113.753 20.8956 113.024 21.1872C112.715 21.3257 111.814 21.9929 110.834 22.501C109.707 23.0823 108.52 23.5075 108.69 23.6412C109.009 23.8908 111.793 23.2247 113.891 23.1837C115.989 23.1428 119.182 25.0544 123.837 24.9715C124.292 24.8467 124.246 25.346 123.972 25.6786C123.78 25.9137 123.341 26.0844 123.097 26.1653C115.887 26.1702 109.954 30.9522 109.165 37.1046H98.2249V41.7032H104.4C103.25 44.0752 100.893 45.706 98.166 45.706C94.3097 45.706 91.1821 42.4523 91.1821 38.4408C91.1821 34.4273 94.3086 31.1736 98.166 31.1736C100.674 31.1736 102.867 32.5527 104.098 34.6194L109.906 32.2826C107.562 28.5958 103.186 26.1087 98.1649 26.1087C92.3377 26.1087 87.3825 29.4561 85.4629 34.1454V26.7086H78.968V40.842L66.5944 26.573H60.1594V34.1308C58.2323 29.341 53.0471 25.9039 46.9363 25.9039C39.8839 25.9039 34.0631 30.4792 33.0658 36.4316L31.2254 26.7066H24.8503L19.512 39.1732L14.1738 26.7066H7.79656L3.40739 49.9057H9.63804L12.2702 36.6393L18.1082 49.9057H20.9138L26.7517 36.6393L29.3839 49.9057H35.6146L34.4804 43.9163C36.8194 47.8693 41.5146 50.5738 46.9352 50.5738C53.046 50.5738 58.2313 47.1378 60.1584 42.346V49.9048H66.5206V35.505L78.938 49.9048H85.4629V42.7322C87.3825 47.4225 92.3377 50.7689 98.1649 50.7689C103.648 50.7689 108.255 47.8351 110.334 43.5934C112.543 47.8624 117.427 50.8342 123.109 50.8342C129.021 50.8342 134.07 47.6186 136.139 43.0697C138.279 47.4791 143.255 50.5729 149.057 50.5729C156.81 50.5729 163.094 45.0506 163.094 38.2389C163.094 38.1511 162.947 37.4879 162.945 37.403C166.228 40.1154 172.926 40.2715 173.049 42.9351C173.148 45.0535 171.467 45.7635 169.398 45.5977C167.094 45.4114 163.864 43.3788 163.864 43.3788L161.126 47.9814C161.126 47.9814 163.816 50.4773 170.129 50.4773C175.523 50.4773 177.996 47.6332 178.865 46.2882V49.9057H193.426V44.8769H185.336V40.8284H185.339ZM46.9363 44.9716C44.9773 44.9716 43.0986 44.2622 41.7134 42.9996C40.3282 41.737 39.55 40.0245 39.55 38.2389C39.55 36.4533 40.3282 34.7408 41.7134 33.4781C43.0986 32.2155 44.9773 31.5062 46.9363 31.5062C48.8952 31.5062 50.774 32.2155 52.1592 33.4781C53.5443 34.7408 54.3225 36.4533 54.3225 38.2389C54.3225 40.0245 53.5443 41.737 52.1592 42.9996C50.774 44.2622 48.8952 44.9716 46.9363 44.9716ZM123.11 45.2329C122.125 45.2546 121.146 45.0964 120.229 44.7678C119.312 44.4392 118.477 43.9468 117.772 43.3196C117.067 42.6924 116.507 41.943 116.124 41.1155C115.742 40.288 115.545 39.3992 115.545 38.5012C115.545 37.6033 115.742 36.7145 116.124 35.887C116.507 35.0595 117.067 34.3101 117.772 33.6829C118.477 33.0556 119.312 32.5632 120.229 32.2347C121.146 31.9061 122.125 31.7479 123.11 31.7695C125.038 31.8118 126.871 32.5396 128.218 33.7975C129.565 35.0553 130.32 36.7434 130.32 38.5012C130.32 40.259 129.565 41.9472 128.218 43.205C126.871 44.4628 125.038 45.1906 123.11 45.2329ZM136.027 33.6675C134.038 29.5643 129.588 26.6052 124.307 26.2131C124.336 26.1975 124.588 26.0736 124.888 25.7615C125.208 25.4289 124.752 25.0125 125.026 24.7638C128.493 25.0135 130.815 19.0718 137.664 19.0249C143.777 18.984 146.377 23.0999 148.886 24.9296C147.198 25.3041 144.324 25.6367 144.46 25.8854C145.61 25.8431 146.761 25.8633 147.908 25.9459C142.497 26.3321 137.961 29.418 136.027 33.6675ZM149.058 44.9716C148.088 44.9716 147.127 44.7974 146.231 44.4591C145.335 44.1208 144.521 43.625 143.836 42.9999C143.15 42.3748 142.606 41.6327 142.235 40.816C141.863 39.9992 141.672 39.1239 141.672 38.2399C141.672 36.9079 142.105 35.6057 142.917 34.4981C143.728 33.3905 144.882 32.5271 146.232 32.0172C147.582 31.5073 149.067 31.3738 150.5 31.6335C151.934 31.8933 153.25 32.5347 154.283 33.4765C155.317 34.4183 156.02 35.6183 156.305 36.9247C156.59 38.2311 156.444 39.5852 155.884 40.8157C155.325 42.0462 154.378 43.0978 153.163 43.8375C151.947 44.5773 150.519 44.9719 149.058 44.9716Z" fill="#CE3829"/>
</svg>
